<svg width="48" height="56" viewBox="0 0 48 56" fill="none" xmlns="http://www.w3.org/2000/svg">
<g clip-path="url(#clip0_298_19)">
<path d="M25.7014 15.7361L27.9082 11.8307H30.3875C30.652 11.8307 30.9056 11.7342 31.0925 11.5626C31.2795 11.3909 31.3846 11.1581 31.3846 10.9153C31.3846 10.6726 31.2795 10.4398 31.0925 10.2681C30.9056 10.0964 30.652 10 30.3875 10H17.858C17.5936 10 17.3399 10.0964 17.153 10.2681C16.966 10.4398 16.8609 10.6726 16.8609 10.9153C16.8609 11.1581 16.966 11.3909 17.153 11.5626C17.3399 11.7342 17.5936 11.8307 17.858 11.8307H20.3373L22.5441 15.7361C20.172 16.0386 17.9705 17.0384 16.2694 18.5859C16.1659 18.6728 16.083 18.7783 16.0259 18.8959C15.9687 19.0135 15.9385 19.1406 15.937 19.2693V42.3541C15.9374 42.4801 15.9659 42.6047 16.0208 42.7201C16.0757 42.8356 16.1557 42.9395 16.2561 43.0254C18.3456 44.9307 21.1711 46 24.1161 46C27.0611 46 29.8867 44.9307 31.9762 43.0254C32.0792 42.9398 32.1614 42.8352 32.2175 42.7185C32.2736 42.6018 32.3024 42.4756 32.3019 42.348V19.2693C32.3015 19.1434 32.273 19.0188 32.2181 18.9033C32.1632 18.7879 32.0831 18.684 31.9828 18.5981C30.2828 17.0435 28.0781 16.0389 25.7014 15.7361ZM25.6615 11.8307L24.1194 14.5767L22.584 11.8307H25.6615ZM24.1194 17.4508C26.4118 17.4448 28.622 18.2337 30.3078 19.6599V27.2389H17.9311V19.6599C19.6175 18.2348 21.8273 17.446 24.1194 17.4508ZM30.3078 29.0451V32.5295H17.9377V29.0695L30.3078 29.0451ZM24.1194 44.1726C21.8273 44.1775 19.6175 43.3887 17.9311 41.9636V34.3846H30.3078V41.9636C28.622 43.3897 26.4118 44.1787 24.1194 44.1726Z" fill="#FDF1E7"/>
<path d="M41.003 29.8936H37.4868C37.2224 29.8936 36.9688 29.99 36.7818 30.1617C36.5948 30.3333 36.4897 30.5661 36.4897 30.8089C36.4897 31.0517 36.5948 31.2845 36.7818 31.4561C36.9688 31.6278 37.2224 31.7242 37.4868 31.7242H41.003C41.2675 31.7242 41.5211 31.6278 41.7081 31.4561C41.895 31.2845 42.0001 31.0517 42.0001 30.8089C42.0001 30.5661 41.895 30.3333 41.7081 30.1617C41.5211 29.99 41.2675 29.8936 41.003 29.8936Z" fill="#FDF1E7"/>
<path d="M36.2439 34.4822C36.1518 34.3965 36.0421 34.3286 35.9211 34.2822C35.8002 34.2358 35.6704 34.2119 35.5394 34.2119C35.4083 34.2119 35.2785 34.2358 35.1576 34.2822C35.0366 34.3286 34.9269 34.3965 34.8348 34.4822C34.6497 34.6546 34.5459 34.8869 34.5459 35.129C34.5459 35.3711 34.6497 35.6034 34.8348 35.7758L37.2942 38.052C37.4811 38.2234 37.7345 38.3197 37.9987 38.3197C38.2629 38.3197 38.5164 38.2234 38.7033 38.052C38.7966 37.9674 38.8706 37.8667 38.9211 37.7556C38.9717 37.6446 38.9977 37.5255 38.9977 37.4051C38.9977 37.2848 38.9717 37.1657 38.9211 37.0546C38.8706 36.9436 38.7966 36.8429 38.7033 36.7583L36.2439 34.4822Z" fill="#FDF1E7"/>
<path d="M35.5394 27.3914C35.6705 27.393 35.8007 27.37 35.9218 27.3238C36.043 27.2777 36.1526 27.2093 36.2439 27.1229L38.7299 24.8467C38.8211 24.7602 38.8929 24.658 38.9411 24.546C38.9893 24.434 39.013 24.3144 39.0108 24.1939C39.0086 24.0735 38.9807 23.9547 38.9285 23.8442C38.8763 23.7337 38.8009 23.6337 38.7066 23.55C38.6124 23.4663 38.501 23.4004 38.379 23.3561C38.257 23.3119 38.1267 23.2901 37.9956 23.2921C37.8644 23.2941 37.735 23.3198 37.6146 23.3677C37.4943 23.4156 37.3854 23.4848 37.2942 23.5714L34.8348 25.8475C34.6497 26.0199 34.5459 26.2523 34.5459 26.4943C34.5459 26.7364 34.6497 26.9688 34.8348 27.1412C34.9285 27.2234 35.0389 27.2879 35.1599 27.3308C35.2808 27.3738 35.4097 27.3943 35.5394 27.3914Z" fill="#FDF1E7"/>
<path d="M11.5103 30.8089C11.5103 30.5661 11.4053 30.3333 11.2183 30.1617C11.0313 29.99 10.7777 29.8936 10.5133 29.8936H6.99705C6.73261 29.8936 6.47901 29.99 6.29203 30.1617C6.10505 30.3333 6 30.5661 6 30.8089C6 31.0517 6.10505 31.2845 6.29203 31.4561C6.47901 31.6278 6.73261 31.7242 6.99705 31.7242H10.5133C10.7777 31.7242 11.0313 31.6278 11.2183 31.4561C11.4053 31.2845 11.5103 31.0517 11.5103 30.8089Z" fill="#FDF1E7"/>
<path d="M10.706 23.5716C10.6147 23.4817 10.5046 23.4095 10.3823 23.3595C10.26 23.3095 10.128 23.2826 9.99413 23.2804C9.86025 23.2782 9.72728 23.3009 9.60313 23.3469C9.47898 23.3929 9.3662 23.4615 9.27152 23.5484C9.17684 23.6353 9.1022 23.7388 9.05206 23.8528C9.00191 23.9668 8.97729 24.0889 8.97965 24.2118C8.98201 24.3347 9.01131 24.4559 9.06581 24.5681C9.1203 24.6804 9.19887 24.7815 9.29683 24.8653L11.7828 27.1414C11.8742 27.2278 11.9838 27.2962 12.1049 27.3424C12.2261 27.3886 12.3562 27.4115 12.4874 27.4099C12.6184 27.4105 12.7482 27.387 12.8692 27.3409C12.9902 27.2948 13.0999 27.227 13.192 27.1414C13.3771 26.969 13.4808 26.7367 13.4808 26.4946C13.4808 26.2525 13.3771 26.0201 13.192 25.8477L10.706 23.5716Z" fill="#FDF1E7"/>
<path d="M11.7564 34.4822L9.27044 36.7583C9.17719 36.8429 9.10316 36.9436 9.05263 37.0546C9.00209 37.1657 8.97607 37.2848 8.97607 37.4051C8.97607 37.5255 9.00209 37.6446 9.05263 37.7556C9.10316 37.8667 9.17719 37.9674 9.27044 38.052C9.45739 38.2234 9.7108 38.3197 9.97502 38.3197C10.2392 38.3197 10.4927 38.2234 10.6796 38.052L13.1656 35.7758C13.3507 35.6034 13.4544 35.3711 13.4544 35.129C13.4544 34.8869 13.3507 34.6546 13.1656 34.4822C13.0734 34.3965 12.9637 34.3286 12.8428 34.2822C12.7218 34.2358 12.5921 34.2119 12.461 34.2119C12.3299 34.2119 12.2001 34.2358 12.0792 34.2822C11.9582 34.3286 11.8485 34.3965 11.7564 34.4822Z" fill="#FDF1E7"/>
</g>
<defs>
<clipPath id="clip0_298_19">
<rect width="48" height="56" fill="white"/>
</clipPath>
</defs>
</svg>
