<svg width="48" height="56" viewBox="0 0 48 56" fill="none" xmlns="http://www.w3.org/2000/svg">
<path d="M31.4375 28.9278C30.6661 30.1507 30.6248 31.7132 31.3962 32.9789L31.5994 33.3168C31.7612 33.5706 32.0057 33.6958 32.2501 33.6958C32.3723 33.6958 32.5342 33.653 32.6564 33.5689C33.0215 33.3151 33.104 32.852 32.9009 32.4713L32.6977 32.1334C32.2501 31.4165 32.2914 30.5298 32.739 29.8557L32.9834 29.4767C33.8373 28.1269 33.796 26.3963 32.8215 25.1305C32.5771 24.7926 32.0898 24.7514 31.7644 25.0036C31.439 25.2574 31.3994 25.7634 31.6422 26.1013C32.2104 26.8182 32.2517 27.8318 31.7232 28.5899L31.4375 28.9278Z" fill="#FDF1E7"/>
<path d="M35.1728 28.9278C34.4015 30.1507 34.3602 31.7132 35.1315 32.9789L35.3347 33.3168C35.4966 33.5706 35.741 33.6958 35.9855 33.6958C36.1077 33.6958 36.2696 33.653 36.3918 33.5689C36.7568 33.3151 36.8394 32.852 36.6362 32.4713L36.4331 32.1334C35.9855 31.4165 36.0267 30.5298 36.4743 29.8557L36.7187 29.4767C37.5727 28.1269 37.5314 26.3963 36.5569 25.1305C36.2727 24.7926 35.8252 24.7514 35.4998 25.0036C35.1744 25.2574 35.1347 25.7634 35.3776 26.1013C35.9458 26.8182 35.987 27.8318 35.4585 28.5899L35.1728 28.9278Z" fill="#FDF1E7"/>
<path d="M38.9521 28.9278C38.1808 30.1507 38.1395 31.7132 38.9108 32.9789L39.114 33.3168C39.2759 33.5706 39.5203 33.6958 39.7648 33.6958C39.887 33.6958 40.0489 33.653 40.1711 33.5689C40.5361 33.3151 40.6187 32.852 40.4155 32.4713L40.2124 32.1334C39.7647 31.4165 39.806 30.5298 40.2536 29.8557L40.498 29.4767C41.352 28.1269 41.3107 26.3963 40.3361 25.1305C40.0917 24.7926 39.6044 24.7514 39.2791 25.0036C38.9537 25.2574 38.914 25.7634 39.1569 26.1013C39.7251 26.8182 39.7663 27.8318 39.2378 28.5899L38.9521 28.9278Z" fill="#FDF1E7"/>
<path d="M41.2272 43.4409H19.4891C19.0828 43.4409 18.7178 43.7788 18.7178 44.2419C18.7178 44.7067 19.0431 45.0428 19.4891 45.0428H41.2272C41.6336 45.0428 41.9986 44.705 41.9986 44.2419C42.0002 43.7787 41.6335 43.4409 41.2272 43.4409Z" fill="#FDF1E7"/>
<path d="M20.2616 40.7823H23.7153C25.3819 40.7823 26.7214 39.3896 26.7214 37.6608C26.7214 37.4498 26.6801 37.2389 26.6801 37.0279H30.0942L31.11 40.4033C31.1909 40.7411 31.5163 40.9521 31.8417 40.9521H40.0489C40.3743 40.9521 40.6584 40.7411 40.7806 40.4033L41.9583 36.4791C42.0392 36.2253 41.9996 35.9731 41.8361 35.7622C41.6742 35.5512 41.471 35.4243 41.2266 35.4243H25.8279C25.2994 34.8755 24.528 34.4964 23.7154 34.4964H20.8298L18.1475 31.6699C17.538 31.0371 16.8476 30.5311 16.0349 30.2361C17.4983 29.2242 18.4729 27.4937 18.4729 25.5111C18.4729 25.2161 18.4729 24.9211 18.4316 24.6672C18.3506 24.2453 17.984 23.9503 17.538 24.0344C17.1317 24.1184 16.8476 24.4991 16.9285 24.9622C16.9698 25.1732 16.9698 25.3413 16.9698 25.5522C16.9698 27.7887 15.2223 29.6445 13.0288 29.6445C10.875 29.6445 9.08786 27.8299 9.08786 25.5522C9.08786 25.3413 9.08786 25.1732 9.12912 24.9622C9.21007 24.5403 8.92596 24.1184 8.51964 24.0344C8.11332 23.9503 7.707 24.2453 7.62606 24.6672C7.5848 24.9622 7.5848 25.2161 7.5848 25.5111C7.5848 27.3668 8.47838 29.0133 9.81956 30.0251C8.19428 30.7009 7.0166 32.3457 7.0166 34.2873V47.1988C7.0166 47.6207 7.34197 47.9998 7.78796 47.9998H16.4015C16.6047 47.9998 16.8078 47.9157 16.9301 47.746C17.092 47.5779 17.1332 47.3669 17.1332 47.156L16.9301 39.4328L17.3364 39.7707C18.1887 40.4447 19.2045 40.7823 20.2616 40.7823ZM40.1712 37.0691L39.4395 39.3896H32.3704L31.6387 37.0691H40.1712ZM16.5633 37.1548C16.3188 36.9867 15.9951 36.9439 15.7506 37.0708C15.5062 37.1977 15.3443 37.4927 15.3443 37.7877L15.5887 46.48L8.51795 46.4783V34.4124C8.51795 32.7676 9.81785 31.3749 11.4431 31.3749H13.6366C14.9365 31.3749 16.1555 31.9238 17.049 32.8516L19.9346 35.8891C20.0964 36.0572 20.2599 36.1429 20.4631 36.1429H23.6724C24.485 36.1429 25.1754 36.8186 25.1754 37.7036C25.1754 38.5903 24.5247 39.2644 23.6724 39.2644H20.2187C19.487 39.2644 18.7965 39.0106 18.2283 38.5475L16.5633 37.1548Z" fill="#FDF1E7"/>
<path d="M8.56026 17.1552V21.7124C8.56026 22.1343 8.88563 22.5133 9.33162 22.5133H16.7262C17.1325 22.5133 17.4976 22.1755 17.4976 21.7124L17.4992 17.1552C18.9626 16.7333 20.0593 15.3835 20.0593 13.6959C20.0593 11.5863 18.2309 9.85575 16.1993 10.1524C15.6707 8.8867 14.4518 8 13.0297 8C11.6488 8 10.4299 8.8867 9.86004 10.1524C7.82844 9.89864 6 11.5863 6 13.6959C6 15.3407 7.09686 16.7333 8.56026 17.1552ZM10.1443 11.8399C10.3474 11.924 10.5919 11.8828 10.795 11.7971C10.9982 11.6702 11.1204 11.5021 11.1601 11.2483C11.322 10.2775 12.1346 9.60347 13.0298 9.60347C13.9647 9.60347 14.7773 10.2792 14.9392 11.2483C14.9804 11.4592 15.1011 11.6702 15.3042 11.7971C15.5074 11.924 15.7518 11.924 15.955 11.8399C17.2962 11.334 18.5548 12.3888 18.5548 13.6957C18.5548 14.7934 17.7009 15.6784 16.6454 15.6784C16.32 15.6784 16.0359 15.5943 15.7518 15.4674C15.3868 15.2564 14.8979 15.4246 14.736 15.8053C14.5329 16.1843 14.6948 16.692 15.0614 16.8601C15.3455 17.0282 15.6709 17.1139 16.0359 17.1979V20.9111H10.1045V17.1979C10.4298 17.1139 10.7552 17.0298 11.079 16.8601C11.444 16.6491 11.6075 16.1843 11.4043 15.8053C11.2012 15.4262 10.7536 15.2564 10.3885 15.4674C10.1044 15.5943 9.82035 15.6784 9.49497 15.6784C8.43789 15.6784 7.58559 14.7917 7.58559 13.6957C7.54433 12.3459 8.84436 11.3323 10.1443 11.8399Z" fill="#FDF1E7"/>
</svg>
