<svg width="48" height="56" viewBox="0 0 48 56" fill="none" xmlns="http://www.w3.org/2000/svg">
<g clip-path="url(#clip0_298_30)">
<path d="M38.9005 35.7752C39.0984 35.9722 39.2192 36.2417 39.2192 36.5112C39.2192 36.7807 39.0984 37.0503 38.9005 37.2472C38.6917 37.4338 38.406 37.5478 38.1203 37.5478C37.8345 37.5478 37.5488 37.4338 37.34 37.2472C37.1422 37.0503 37.0213 36.7807 37.0213 36.5112C37.0213 36.2417 37.1422 35.9722 37.34 35.7752C37.7576 35.3917 38.4939 35.3917 38.9005 35.7752ZM23.4347 10.1394C23.7855 9.95353 24.2145 9.95353 24.5653 10.1394L41.4164 19.0671C42.1945 19.4793 42.1945 20.5299 41.4164 20.9422L39.0627 22.1872L39.0694 22.2611V33.0528C39.0694 33.6475 38.555 34.1297 37.9204 34.1297C37.3388 34.1297 36.8581 33.7246 36.782 33.1989L36.7715 33.0528L36.7685 23.4032L34.5611 24.5728L34.5614 32.344C34.5614 32.7138 34.3375 33.0516 33.9838 33.2154C27.6986 36.1258 20.3014 36.1258 14.0162 33.2154C13.7067 33.072 13.4966 32.7955 13.4489 32.4809L13.4386 32.344L13.4373 24.5728L6.58359 20.9422C5.85734 20.5574 5.80893 19.6166 6.43834 19.1577L6.58359 19.0671L23.4347 10.1394ZM32.4862 25.672L24.5653 29.8698C24.2145 30.0557 23.7855 30.0557 23.4347 29.8698L15.5122 25.672L15.5117 31.7269L16.016 31.937C21.1127 33.9601 26.8873 33.9601 31.984 31.937L32.4868 31.7269L32.4862 25.672ZM24 12.3133L9.48357 20.0041L24 27.6934L34.4678 22.1472L25.7779 18.9468C25.2365 18.7474 24.9471 18.2055 25.0813 17.6902L25.1286 17.5506C25.3413 17.0431 25.9194 16.7719 26.4691 16.8977L26.6181 16.942L37.0451 20.7808L38.5149 20.0041L24 12.3133Z" fill="#FDF1E7"/>
</g>
<defs>
<clipPath id="clip0_298_30">
<rect width="36" height="36" fill="white" transform="translate(6 10)"/>
</clipPath>
</defs>
</svg>
