<svg width="48" height="56" viewBox="0 0 48 56" fill="none" xmlns="http://www.w3.org/2000/svg">
<path d="M20.3702 28.1253L17.7987 30.9082L20.3702 33.6912C20.6694 34.015 20.6694 34.5396 20.3702 34.8633C20.2206 35.0252 20.0247 35.1062 19.8287 35.1062C19.6327 35.1062 19.4368 35.0252 19.2871 34.8633L16.1741 31.4943C16.0305 31.3389 15.9497 31.1284 15.9497 30.9082C15.9497 30.688 16.0305 30.4775 16.1741 30.3221L19.2871 26.9531C19.5863 26.6293 20.071 26.6293 20.3702 26.9531C20.6694 27.2769 20.6694 27.8015 20.3702 28.1253ZM28.7131 26.9531C28.4139 26.6294 27.9292 26.6294 27.63 26.9531C27.3309 27.2769 27.3308 27.8015 27.63 28.1253L30.2016 30.9082L27.63 33.6912C27.3308 34.015 27.3308 34.5396 27.63 34.8633C27.7796 35.0252 27.9756 35.1062 28.1716 35.1062C28.3676 35.1062 28.5635 35.0252 28.7131 34.8633L31.8262 31.4943C31.9698 31.3389 32.0506 31.1284 32.0506 30.9082C32.0506 30.688 31.9698 30.4775 31.8262 30.3221L28.7131 26.9531ZM24.0007 26.7103C23.5774 26.7103 23.2348 27.081 23.2348 27.5392V34.2774C23.2348 34.7356 23.5774 35.1063 24.0007 35.1063C24.4241 35.1063 24.7667 34.7356 24.7667 34.2774V27.5392C24.7667 27.081 24.4241 26.7103 24.0007 26.7103ZM42 17.8936V38.1016C42 40.2499 40.3814 41.9968 38.3918 41.9968L9.60824 42C7.61863 42 6 40.2515 6 38.1048V17.8952C6 15.7468 7.61863 14 9.60824 14H38.3918C40.3814 14 42 15.7485 42 17.8952V17.8936ZM7.53331 17.8936V20.6264H40.4681V17.8936C40.4681 16.66 39.5377 15.6562 38.3918 15.6562H9.60824C8.46383 15.6562 7.53185 16.66 7.53185 17.8936H7.53331ZM40.4681 38.1016V22.2827L7.53178 22.2843V38.1032C7.53178 39.3368 8.46226 40.3406 9.60817 40.3406H38.3917C39.5361 40.3406 40.4681 39.3368 40.4681 38.1032L40.4681 38.1016ZM32.6534 18.284H34.1853C34.26 18.284 34.3199 18.2193 34.3199 18.1383C34.3199 18.0574 34.26 17.9926 34.1853 17.9926H32.6534C32.5786 17.9926 32.5188 18.0574 32.5188 18.1383C32.5188 18.2193 32.5786 18.284 32.6534 18.284ZM36.483 18.284H38.0149C38.0897 18.284 38.1495 18.2193 38.1495 18.1383C38.1495 18.0574 38.0897 17.9926 38.0149 17.9926H36.483C36.4082 17.9926 36.3484 18.0574 36.3484 18.1383C36.3484 18.2193 36.4082 18.284 36.483 18.284ZM28.8238 18.284H30.3556C30.4304 18.284 30.4903 18.2193 30.4903 18.1383C30.4903 18.0574 30.4304 17.9926 30.3556 17.9926H28.8238C28.749 17.9926 28.6891 18.0574 28.6891 18.1383C28.6891 18.2193 28.749 18.284 28.8238 18.284Z" fill="#FDF1E7"/>
</svg>
