<svg width="48" height="56" viewBox="0 0 48 56" fill="none" xmlns="http://www.w3.org/2000/svg">
<path d="M40.9136 14H30.084C28.8649 14.0015 27.6664 14.2984 26.6018 14.8628C25.5372 15.4272 24.6417 16.2404 24 17.2254C23.3583 16.2404 22.4628 15.4272 21.3982 14.8628C20.3336 14.2984 19.1351 14.0015 17.916 14H7.08644C6.94361 13.9995 6.80207 14.0258 6.67 14.0775C6.53793 14.1292 6.41793 14.2052 6.31694 14.3012C6.21594 14.3972 6.13593 14.5112 6.08154 14.6367C6.02714 14.7622 5.99943 14.8967 6.00001 15.0325V40.9675C5.99943 41.1033 6.02714 41.2378 6.08154 41.3633C6.13593 41.4888 6.21594 41.6028 6.31694 41.6988C6.41793 41.7948 6.53793 41.8708 6.67 41.9225C6.80207 41.9742 6.94361 42.0005 7.08644 42H40.9136C41.0564 42.0005 41.1979 41.9742 41.33 41.9225C41.4621 41.8708 41.5821 41.7948 41.6831 41.6988C41.7841 41.6028 41.8641 41.4888 41.9185 41.3633C41.9729 41.2378 42.0006 41.1033 42 40.9675V15.0325C42.0006 14.8967 41.9729 14.7622 41.9185 14.6367C41.8641 14.5112 41.7841 14.3972 41.6831 14.3012C41.5821 14.2052 41.4621 14.1292 41.33 14.0775C41.1979 14.0258 41.0564 13.9995 40.9136 14ZM8.17287 16.0649H17.916C19.2411 16.066 20.5116 16.5667 21.4485 17.4571C22.3855 18.3476 22.9124 19.5549 22.9136 20.8142V39.9351H8.17287V16.0649ZM39.8271 39.9351H25.0864V20.8142C25.0876 19.5549 25.6145 18.3476 26.5515 17.4571C27.4884 16.5667 28.7589 16.066 30.084 16.0649H39.8271V39.9351ZM19.9628 25.8938C19.9634 26.0295 19.9357 26.164 19.8813 26.2896C19.8269 26.4151 19.7469 26.5291 19.6459 26.6251C19.5449 26.7211 19.4249 26.7971 19.2928 26.8488C19.1608 26.9005 19.0192 26.9268 18.8764 26.9263H12.1753C11.8871 26.9263 11.6108 26.8175 11.4071 26.6239C11.2033 26.4302 11.0889 26.1676 11.0889 25.8938C11.0889 25.62 11.2033 25.3574 11.4071 25.1638C11.6108 24.9701 11.8871 24.8614 12.1753 24.8614H18.8764C19.1619 24.8603 19.4363 24.9664 19.6398 25.1567C19.8433 25.347 19.9594 25.606 19.9628 25.8773V25.8938ZM19.9628 30.0236C19.9634 30.1593 19.9357 30.2938 19.8813 30.4193C19.8269 30.5449 19.7469 30.6589 19.6459 30.7549C19.5449 30.8508 19.4249 30.9269 19.2928 30.9786C19.1608 31.0303 19.0192 31.0566 18.8764 31.056H12.1753C11.8871 31.056 11.6108 30.9473 11.4071 30.7536C11.2033 30.56 11.0889 30.2974 11.0889 30.0236C11.0889 29.7498 11.2033 29.4872 11.4071 29.2935C11.6108 29.0999 11.8871 28.9912 12.1753 28.9912H18.8764C19.1619 28.99 19.4363 29.0962 19.6398 29.2865C19.8433 29.4768 19.9594 29.7358 19.9628 30.0071V30.0236ZM29.1236 24.8614H35.8247C36.1129 24.8614 36.3892 24.9701 36.5929 25.1638C36.7967 25.3574 36.9111 25.62 36.9111 25.8938C36.9111 26.1676 36.7967 26.4302 36.5929 26.6239C36.3892 26.8175 36.1129 26.9263 35.8247 26.9263H29.1236C28.8355 26.9263 28.5591 26.8175 28.3554 26.6239C28.1516 26.4302 28.0372 26.1676 28.0372 25.8938C28.0372 25.62 28.1516 25.3574 28.3554 25.1638C28.5591 24.9701 28.8355 24.8614 29.1236 24.8614ZM36.9111 30.0236C36.9117 30.1593 36.884 30.2938 36.8296 30.4193C36.7752 30.5449 36.6952 30.6589 36.5942 30.7549C36.4932 30.8508 36.3732 30.9269 36.2412 30.9786C36.1091 31.0303 35.9675 31.0566 35.8247 31.056H29.1236C28.8355 31.056 28.5591 30.9473 28.3554 30.7536C28.1516 30.56 28.0372 30.2974 28.0372 30.0236C28.0372 29.7498 28.1516 29.4872 28.3554 29.2935C28.5591 29.0999 28.8355 28.9912 29.1236 28.9912H35.8247C36.1102 28.99 36.3846 29.0962 36.5881 29.2865C36.7916 29.4768 36.9077 29.7358 36.9111 30.0071V30.0236Z" fill="#FDF1E7"/>
</svg>
