<svg width="48" height="56" viewBox="0 0 48 56" fill="none" xmlns="http://www.w3.org/2000/svg">
<path d="M5.4336 37.0215C5.4624 37.0215 5.4912 37.026 5.52 37.026H19.6704L17.7744 38.9479L14.3616 39.024C14.1648 39.024 13.9776 39.1092 13.8432 39.2436L9.4848 43.7504C9.1728 44.0685 8.76 44.7988 9.4848 46.08C9.8688 46.761 10.5264 47.5181 11.3328 48.208C12.1392 48.898 13.0032 49.4445 13.7616 49.7402C14.256 49.9373 14.6688 50.009 15.0096 50.009C15.6576 50.009 16.0464 49.7447 16.2528 49.5296L20.6112 45.0183C20.7408 44.8839 20.808 44.7047 20.7936 44.5255L20.5824 41.3492L24.8592 37.017H39.12C43.488 37.017 44.64 32.1831 44.64 29.625C44.64 29.2532 44.3184 28.953 43.92 28.953H32.8224L35.3664 26.3725C35.424 26.3232 35.4816 26.274 35.5392 26.2247C35.6448 26.1351 35.7312 26.032 35.808 25.92L37.4736 24.2356C37.8576 23.8458 38.064 23.3306 38.04 22.8199C38.0208 22.354 37.8096 21.9239 37.4496 21.6192C36.6768 20.9562 35.4288 21.0458 34.6656 21.8208L32.8896 23.6218L28.7904 25.4676L26.4384 23.6084C26.4384 21.7671 25.2528 20.0512 23.304 19.33C21.2784 18.5818 18.9936 19.1328 17.6208 20.7098C12.2736 26.8519 10.7568 28.505 10.3248 28.944H0.72C0.3216 28.944 0 29.2442 0 29.616C0 36.3271 5.3808 36.9991 5.4336 37.0036V37.0215ZM22.7808 20.5978C23.7648 20.9607 24.4704 21.682 24.8016 22.5332C24.4704 22.448 24.1248 22.4391 23.7648 22.5242C22.7088 22.7661 21.7632 23.7383 21.4608 24.8896C21.1968 25.9021 21.4944 26.8519 22.2768 27.497C22.3056 27.5239 22.3392 27.5463 22.3728 27.5642L23.4576 28.1869L23.1504 28.9664H12.2448C13.3152 27.8016 15.216 25.6288 18.7488 21.5789C19.7232 20.4589 21.3456 20.0647 22.7808 20.5978ZM29.0016 26.8877L33.8352 24.7104C33.8832 24.688 33.9264 24.6656 33.9648 24.6343C34.128 24.5133 34.3584 24.5178 34.5216 24.6343C34.6608 24.7373 34.6848 24.8717 34.6896 24.9434C34.6896 25.0151 34.68 25.1495 34.5504 25.2615C33.1872 26.4666 31.344 27.5956 29.7168 28.5856L29.1792 28.9127C28.8 29.1456 28.2528 29.3696 27.8064 29.1008L23.1792 26.4442C22.7424 26.0544 22.7568 25.5572 22.848 25.2032C23.0208 24.5536 23.568 23.9444 24.096 23.8234C24.2688 23.7831 24.504 23.7741 24.7728 24.0608C24.7968 24.0832 24.8208 24.1101 24.8496 24.128L28.2144 26.7892C28.4304 26.9594 28.7376 26.9997 28.992 26.8832L29.0016 26.8877ZM36.4848 22.6317C36.5808 22.7124 36.6048 22.8199 36.6096 22.9005C36.6144 23.0573 36.5472 23.2186 36.4224 23.3485L35.7984 23.9802C35.6928 23.8368 35.5776 23.7024 35.4288 23.5949C35.3232 23.5188 35.2128 23.456 35.1024 23.4023L35.7408 22.7572C35.9616 22.5332 36.3072 22.4794 36.4944 22.6362L36.4848 22.6317ZM39.12 35.6909H26.1888L31.4976 30.3149H43.1616C43.0128 31.8919 42.3264 35.6909 39.12 35.6909ZM14.3184 48.5172C13.7136 48.2797 12.9792 47.8093 12.3024 47.2314C11.6256 46.6535 11.0592 46.0084 10.7568 45.4663C10.4928 45.0004 10.488 44.7316 10.5504 44.6688L14.7024 40.3725L17.8224 40.3008L19.1472 41.4343L19.344 44.3463L15.192 48.6426C15.1344 48.7008 14.8416 48.7232 14.3232 48.5172H14.3184ZM19.8048 40.1754L19.1136 39.584L28.0176 30.5658C28.0944 30.5748 28.1712 30.5792 28.2528 30.5792C28.6896 30.5792 29.1504 30.4628 29.6064 30.2432L19.8 40.1754H19.8048ZM24.816 28.9754H24.6816L24.7056 28.9127L24.816 28.9754ZM10.6272 30.3194H26.3088L21 35.6954H5.5728C5.1504 35.6327 1.7616 34.9786 1.464 30.3194H10.6272Z" fill="#FDF1E7"/>
<path d="M18 15.0186C18 17.2362 19.9296 19.0371 22.3056 19.0371C24.6816 19.0371 26.6112 17.2362 26.6112 15.0186C26.6112 12.801 24.6816 11 22.3056 11C19.9296 11 18 12.801 18 15.0186ZM19.44 15.0186C19.44 13.5446 20.7264 12.344 22.3056 12.344C23.8848 12.344 25.1712 13.5446 25.1712 15.0186C25.1712 16.4925 23.8848 17.6931 22.3056 17.6931C20.7264 17.6931 19.44 16.4925 19.44 15.0186Z" fill="#FDF1E7"/>
</svg>
