<svg width="48" height="56" viewBox="0 0 48 56" fill="none" xmlns="http://www.w3.org/2000/svg">
<path d="M20.5385 10H8.94231C8.16252 10.0018 7.4152 10.3124 6.8638 10.8638C6.31241 11.4152 6.00183 12.1625 6 12.9423V24.5385C6 24.7221 6.07294 24.8982 6.20277 25.028C6.33261 25.1578 6.5087 25.2308 6.69231 25.2308H11.5385C11.7221 25.2308 11.8982 25.1578 12.028 25.028C12.1578 24.8982 12.2308 24.7221 12.2308 24.5385V23.8462C12.2308 23.4789 12.3766 23.1267 12.6363 22.8671C12.896 22.6074 13.2482 22.4615 13.6154 22.4615C13.9826 22.4615 14.3348 22.6074 14.5945 22.8671C14.8541 23.1267 15 23.4789 15 23.8462V24.5385C15 24.7221 15.0729 24.8982 15.2028 25.028C15.3326 25.1578 15.5087 25.2308 15.6923 25.2308H20.5385C20.7221 25.2308 20.8982 25.1578 21.028 25.028C21.1578 24.8982 21.2308 24.7221 21.2308 24.5385V20.3846C21.9652 20.3846 22.6696 20.0929 23.1889 19.5735C23.7082 19.0542 24 18.3498 24 17.6154C24 16.8809 23.7082 16.1766 23.1889 15.6572C22.6696 15.1379 21.9652 14.8462 21.2308 14.8462V10.6923C21.2308 10.5087 21.1578 10.3326 21.028 10.2028C20.8982 10.0729 20.7221 10 20.5385 10ZM22.6154 17.6154C22.6154 17.9826 22.4695 18.3348 22.2098 18.5945C21.9502 18.8541 21.598 19 21.2308 19H20.5385C20.3549 19 20.1788 19.0729 20.0489 19.2028C19.9191 19.3326 19.8462 19.5087 19.8462 19.6923V23.8462H16.3846C16.3846 23.1117 16.0929 22.4073 15.5735 21.888C15.0542 21.3687 14.3498 21.0769 13.6154 21.0769C12.8809 21.0769 12.1766 21.3687 11.6572 21.888C11.1379 22.4073 10.8462 23.1117 10.8462 23.8462H7.38462V12.9423C7.38462 12.5292 7.54873 12.133 7.84085 11.8409C8.13298 11.5487 8.52918 11.3846 8.94231 11.3846H19.8462V15.5385C19.8462 15.7221 19.9191 15.8982 20.0489 16.028C20.1788 16.1578 20.3549 16.2308 20.5385 16.2308H21.2308C21.598 16.2308 21.9502 16.3766 22.2098 16.6363C22.4695 16.896 22.6154 17.2482 22.6154 17.6154Z" fill="#FDF1E7"/>
<path d="M28.1537 19H27.4614C27.2777 19 27.1016 19.0729 26.9718 19.2028C26.842 19.3326 26.769 19.5087 26.769 19.6923V24.5385C26.769 24.7221 26.842 24.8982 26.9718 25.028C27.1016 25.1578 27.2777 25.2308 27.4614 25.2308H31.6152C31.6152 25.9652 31.907 26.6696 32.4263 27.1889C32.9456 27.7082 33.65 28 34.3844 28C35.1189 28 35.8232 27.7082 36.3426 27.1889C36.8619 26.6696 37.1537 25.9652 37.1537 25.2308H41.3075C41.4911 25.2308 41.6672 25.1578 41.797 25.028C41.9269 24.8982 41.9998 24.7221 41.9998 24.5385V12.9423C41.998 12.1625 41.6874 11.4152 41.136 10.8638C40.5846 10.3124 39.8373 10.0018 39.0575 10H27.4614C27.2777 10 27.1016 10.0729 26.9718 10.2028C26.842 10.3326 26.769 10.5087 26.769 10.6923V15.5385C26.769 15.7221 26.842 15.8982 26.9718 16.028C27.1016 16.1578 27.2777 16.2308 27.4614 16.2308H28.1537C28.5209 16.2308 28.8731 16.3766 29.1327 16.6363C29.3924 16.896 29.5383 17.2482 29.5383 17.6154C29.5383 17.9826 29.3924 18.3348 29.1327 18.5945C28.8731 18.8541 28.5209 19 28.1537 19ZM28.1537 14.8462V11.3846H39.0575C39.4706 11.3846 39.8668 11.5487 40.159 11.8409C40.4511 12.133 40.6152 12.5292 40.6152 12.9423V23.8462H36.4614C36.2777 23.8462 36.1016 23.9191 35.9718 24.0489C35.842 24.1788 35.769 24.3549 35.769 24.5385V25.2308C35.769 25.598 35.6232 25.9502 35.3635 26.2098C35.1038 26.4695 34.7517 26.6154 34.3844 26.6154C34.0172 26.6154 33.665 26.4695 33.4054 26.2098C33.1457 25.9502 32.9998 25.598 32.9998 25.2308V24.5385C32.9998 24.3549 32.9269 24.1788 32.797 24.0489C32.6672 23.9191 32.4911 23.8462 32.3075 23.8462H28.1537V20.3846C28.8881 20.3846 29.5925 20.0929 30.1118 19.5735C30.6311 19.0542 30.9229 18.3498 30.9229 17.6154C30.9229 16.8809 30.6311 16.1766 30.1118 15.6572C29.5925 15.1379 28.8881 14.8462 28.1537 14.8462Z" fill="#FDF1E7"/>
<path d="M26.7692 35.6152C26.0348 35.6152 25.3304 35.907 24.8111 36.4263C24.2918 36.9456 24 37.65 24 38.3844C24 39.1189 24.2918 39.8232 24.8111 40.3426C25.3304 40.8619 26.0348 41.1537 26.7692 41.1537V45.3075C26.7692 45.4911 26.8422 45.6672 26.972 45.797C27.1018 45.9269 27.2779 45.9998 27.4615 45.9998H39.0577C39.8375 45.998 40.5848 45.6874 41.1362 45.136C41.6876 44.5846 41.9982 43.8373 42 43.0575V31.4614C42 31.2777 41.9271 31.1016 41.7972 30.9718C41.6674 30.842 41.4913 30.769 41.3077 30.769H36.4615C36.2779 30.769 36.1018 30.842 35.972 30.9718C35.8422 31.1016 35.7692 31.2777 35.7692 31.4614V32.1537C35.7692 32.5209 35.6234 32.8731 35.3637 33.1327C35.104 33.3924 34.7518 33.5383 34.3846 33.5383C34.0174 33.5383 33.6652 33.3924 33.4055 33.1327C33.1459 32.8731 33 32.5209 33 32.1537V31.4614C33 31.2777 32.9271 31.1016 32.7972 30.9718C32.6674 30.842 32.4913 30.769 32.3077 30.769H27.4615C27.2779 30.769 27.1018 30.842 26.972 30.9718C26.8422 31.1016 26.7692 31.2777 26.7692 31.4614V35.6152ZM27.4615 36.9998C27.6451 36.9998 27.8212 36.9269 27.9511 36.797C28.0809 36.6672 28.1538 36.4911 28.1538 36.3075V32.1537H31.6154C31.6154 32.8881 31.9071 33.5925 32.4265 34.1118C32.9458 34.6311 33.6502 34.9229 34.3846 34.9229C35.1191 34.9229 35.8234 34.6311 36.3428 34.1118C36.8621 33.5925 37.1538 32.8881 37.1538 32.1537H40.6154V43.0575C40.6154 43.4706 40.4513 43.8668 40.1591 44.159C39.867 44.4511 39.4708 44.6152 39.0577 44.6152H28.1538V40.4614C28.1538 40.2777 28.0809 40.1016 27.9511 39.9718C27.8212 39.842 27.6451 39.769 27.4615 39.769H26.7692C26.402 39.769 26.0498 39.6232 25.7902 39.3635C25.5305 39.1038 25.3846 38.7516 25.3846 38.3844C25.3846 38.0172 25.5305 37.665 25.7902 37.4054C26.0498 37.1457 26.402 36.9998 26.7692 36.9998H27.4615Z" fill="#FDF1E7"/>
<path d="M6 43.0577C6.00183 43.8375 6.31241 44.5848 6.8638 45.1362C7.4152 45.6876 8.16252 45.9982 8.94231 46H20.5385C20.7221 46 20.8982 45.9271 21.028 45.7972C21.1578 45.6674 21.2308 45.4913 21.2308 45.3077V40.4615C21.2308 40.2779 21.1578 40.1018 21.028 39.972C20.8982 39.8422 20.7221 39.7692 20.5385 39.7692H19.8462C19.4789 39.7692 19.1267 39.6234 18.8671 39.3637C18.6074 39.104 18.4615 38.7518 18.4615 38.3846C18.4615 38.0174 18.6074 37.6652 18.8671 37.4055C19.1267 37.1459 19.4789 37 19.8462 37H20.5385C20.7221 37 20.8982 36.9271 21.028 36.7972C21.1578 36.6674 21.2308 36.4913 21.2308 36.3077V31.4615C21.2308 31.2779 21.1578 31.1018 21.028 30.972C20.8982 30.8422 20.7221 30.7692 20.5385 30.7692H16.3846C16.3846 30.0348 16.0929 29.3304 15.5735 28.8111C15.0542 28.2918 14.3498 28 13.6154 28C12.8809 28 12.1766 28.2918 11.6572 28.8111C11.1379 29.3304 10.8462 30.0348 10.8462 30.7692H6.69231C6.5087 30.7692 6.33261 30.8422 6.20277 30.972C6.07294 31.1018 6 31.2779 6 31.4615V43.0577ZM7.38462 32.1538H11.5385C11.7221 32.1538 11.8982 32.0809 12.028 31.9511C12.1578 31.8212 12.2308 31.6451 12.2308 31.4615V30.7692C12.2308 30.402 12.3766 30.0498 12.6363 29.7902C12.896 29.5305 13.2482 29.3846 13.6154 29.3846C13.9826 29.3846 14.3348 29.5305 14.5945 29.7902C14.8541 30.0498 15 30.402 15 30.7692V31.4615C15 31.6451 15.0729 31.8212 15.2028 31.9511C15.3326 32.0809 15.5087 32.1538 15.6923 32.1538H19.8462V35.6154C19.1117 35.6154 18.4073 35.9071 17.888 36.4265C17.3687 36.9458 17.0769 37.6502 17.0769 38.3846C17.0769 39.1191 17.3687 39.8234 17.888 40.3428C18.4073 40.8621 19.1117 41.1538 19.8462 41.1538V44.6154H8.94231C8.52918 44.6154 8.13298 44.4513 7.84085 44.1591C7.54873 43.867 7.38462 43.4708 7.38462 43.0577V32.1538Z" fill="#FDF1E7"/>
</svg>
